<svg xmlns="http://www.w3.org/2000/svg" width="60.536" height="43.032" viewBox="0 0 60.536 43.032">
  <g id="Group_18" data-name="Group 18" transform="translate(-13.264 -21.376)">
    <path id="Path_15" data-name="Path 15" d="M19.72.408c4.828,0,9.588-2.176,12.648-4.08l1.5,3.6c.136.34.272.476.476.476.136,0,.544-.068,1.36-.2L39.236-.34a.438.438,0,0,0,.408-.476,2.547,2.547,0,0,0-.068-.544A29.788,29.788,0,0,1,39.1-6.936V-38.284c0-.2-.068-.34-.272-.34a8.183,8.183,0,0,0-1.292.476l-3.944,1.564a21.109,21.109,0,0,0-8.772-2.04A18.655,18.655,0,0,0,13.056-33.8c-5.3,3.4-9.792,8.84-9.792,16.524C3.264-7.208,9.384.408,19.72.408Zm3.264-4.556c-7.208,0-13.26-6.732-13.26-15.1,0-4.08.748-8.976,3.468-12.376a18.072,18.072,0,0,1,9.656-2.448,12.49,12.49,0,0,1,8.84,3.808V-7.684a12.213,12.213,0,0,0,.136,1.5A28.013,28.013,0,0,1,22.984-4.148Z" transform="translate(10 60)" fill="red"/>
    <path id="Path_14" data-name="Path 14" d="M13.8.408c5.236,0,10.744-1.768,13.94-4.76,1.5-1.5,4.556-6.256,4.556-10.54,0-2.924-1.292-5.712-5.3-7.276-3.944-1.564-12.92-1.02-16.388-2.38-2.652-1.02-3.332-2.516-3.332-3.876a7.754,7.754,0,0,1,.544-2.244,13.871,13.871,0,0,1,8.976-3.4,15.6,15.6,0,0,1,9.316,3.2.9.9,0,0,0,.544.2c.272,0,.408-.2.68-.816l1.7-4.352a2.351,2.351,0,0,0,.2-.816.5.5,0,0,0-.408-.544A25.531,25.531,0,0,0,20.4-38.624,19.056,19.056,0,0,0,7.412-33.456a12.612,12.612,0,0,0-3.74,8.568,7.841,7.841,0,0,0,4.42,7.208C11.7-15.708,20.944-16.592,24-15.232c2.788,1.292,3.944,2.856,3.944,4.828A8.334,8.334,0,0,1,27.2-7.276a17,17,0,0,1-9.452,2.72C13.532-4.556,9.18-5.848,6.392-8.5a.9.9,0,0,0-.476-.2c-.2,0-.34.068-.612.544L3.06-4.352c-.272.476-.34.612-.34.748,0,.068.136.2.34.408C5.576-.816,9.588.408,13.8.408Z" transform="translate(41.5 64)" fill="red"/>
  </g>
</svg>
